%TF.GenerationSoftware,KiCad,Pcbnew,(7.0.0)*%
%TF.CreationDate,2023-12-07T21:26:55-05:00*%
%TF.ProjectId,PayloadPcbRev2,5061796c-6f61-4645-9063-62526576322e,rev?*%
%TF.SameCoordinates,Original*%
%TF.FileFunction,Soldermask,Bot*%
%TF.FilePolarity,Negative*%
%FSLAX46Y46*%
G04 Gerber Fmt 4.6, Leading zero omitted, Abs format (unit mm)*
G04 Created by KiCad (PCBNEW (7.0.0)) date 2023-12-07 21:26:55*
%MOMM*%
%LPD*%
G01*
G04 APERTURE LIST*
G04 Aperture macros list*
%AMRoundRect*
0 Rectangle with rounded corners*
0 $1 Rounding radius*
0 $2 $3 $4 $5 $6 $7 $8 $9 X,Y pos of 4 corners*
0 Add a 4 corners polygon primitive as box body*
4,1,4,$2,$3,$4,$5,$6,$7,$8,$9,$2,$3,0*
0 Add four circle primitives for the rounded corners*
1,1,$1+$1,$2,$3*
1,1,$1+$1,$4,$5*
1,1,$1+$1,$6,$7*
1,1,$1+$1,$8,$9*
0 Add four rect primitives between the rounded corners*
20,1,$1+$1,$2,$3,$4,$5,0*
20,1,$1+$1,$4,$5,$6,$7,0*
20,1,$1+$1,$6,$7,$8,$9,0*
20,1,$1+$1,$8,$9,$2,$3,0*%
G04 Aperture macros list end*
%ADD10C,1.700000*%
%ADD11RoundRect,0.250000X-0.850000X-0.600000X0.850000X-0.600000X0.850000X0.600000X-0.850000X0.600000X0*%
%ADD12O,2.200000X1.700000*%
%ADD13R,1.700000X1.700000*%
%ADD14O,1.700000X1.700000*%
%ADD15R,1.600000X1.600000*%
%ADD16C,1.600000*%
%ADD17RoundRect,0.250000X0.850000X0.600000X-0.850000X0.600000X-0.850000X-0.600000X0.850000X-0.600000X0*%
%ADD18O,1.600000X1.600000*%
%ADD19C,4.000000*%
%ADD20R,1.800000X1.275000*%
%ADD21O,1.800000X1.275000*%
%ADD22O,1.800000X1.300000*%
%ADD23C,1.200000*%
%ADD24RoundRect,0.250000X-0.600000X-0.725000X0.600000X-0.725000X0.600000X0.725000X-0.600000X0.725000X0*%
%ADD25O,1.700000X1.950000*%
%ADD26RoundRect,0.250000X0.725000X-0.600000X0.725000X0.600000X-0.725000X0.600000X-0.725000X-0.600000X0*%
%ADD27O,1.950000X1.700000*%
%ADD28R,3.200000X3.200000*%
%ADD29O,3.200000X3.200000*%
%ADD30C,2.600000*%
%ADD31RoundRect,0.250000X0.600000X0.750000X-0.600000X0.750000X-0.600000X-0.750000X0.600000X-0.750000X0*%
%ADD32O,1.700000X2.000000*%
%ADD33C,1.308000*%
%ADD34R,1.350000X1.350000*%
%ADD35O,1.350000X1.350000*%
G04 APERTURE END LIST*
D10*
%TO.C,M1*%
X190250000Y-29000000D03*
X190250000Y-34000000D03*
D11*
X183070000Y-29000000D03*
D12*
X183069999Y-31499999D03*
X183069999Y-33999999D03*
%TD*%
D13*
%TO.C,J5*%
X145749999Y-111724999D03*
D14*
X145749999Y-114264999D03*
X145749999Y-116804999D03*
%TD*%
D15*
%TO.C,C7*%
X183999999Y-126999999D03*
D16*
X184000000Y-129500000D03*
%TD*%
D15*
%TO.C,C5*%
X66999999Y-141567620D03*
D16*
X67000000Y-144067621D03*
%TD*%
D10*
%TO.C,J9*%
X65960000Y-112000000D03*
X65960000Y-109500000D03*
D17*
X73140000Y-112000000D03*
D12*
X73139999Y-109499999D03*
%TD*%
D15*
%TO.C,A2*%
X176839999Y-120889999D03*
D18*
X176839999Y-118349999D03*
X176839999Y-115809999D03*
X176839999Y-113269999D03*
X176839999Y-110729999D03*
X176839999Y-108189999D03*
X176839999Y-105649999D03*
X176839999Y-103109999D03*
X164139999Y-103109999D03*
X164139999Y-105649999D03*
X164139999Y-108189999D03*
X164139999Y-110729999D03*
X164139999Y-113269999D03*
X164139999Y-115809999D03*
X164139999Y-118349999D03*
X164139999Y-120889999D03*
%TD*%
D15*
%TO.C,U5*%
X125829999Y-132499999D03*
D18*
X123289999Y-132499999D03*
X120749999Y-132499999D03*
X118209999Y-132499999D03*
X115669999Y-132499999D03*
X113129999Y-132499999D03*
X110589999Y-132499999D03*
X108049999Y-132499999D03*
X108049999Y-140119999D03*
X110589999Y-140119999D03*
X113129999Y-140119999D03*
X115669999Y-140119999D03*
X118209999Y-140119999D03*
X120749999Y-140119999D03*
X123289999Y-140119999D03*
X125829999Y-140119999D03*
%TD*%
D19*
%TO.C,REF\u002A\u002A*%
X192000000Y-151250000D03*
%TD*%
D20*
%TO.C,U4*%
X69499999Y-136949999D03*
D21*
X69499999Y-135249999D03*
D22*
X69499999Y-133549999D03*
D21*
X69499999Y-131849999D03*
X69499999Y-130149999D03*
%TD*%
D16*
%TO.C,R4*%
X107310000Y-37000000D03*
D18*
X99689999Y-36999999D03*
%TD*%
D10*
%TO.C,J10*%
X66210000Y-57750000D03*
X66210000Y-55250000D03*
D17*
X73390000Y-57750000D03*
D12*
X73389999Y-55249999D03*
%TD*%
D19*
%TO.C,REF\u002A\u002A*%
X66500000Y-151250000D03*
%TD*%
D16*
%TO.C,R2*%
X89310000Y-123250000D03*
D18*
X81689999Y-123249999D03*
%TD*%
D10*
%TO.C,M6*%
X190250000Y-89000000D03*
X190250000Y-94000000D03*
D11*
X183070000Y-89000000D03*
D12*
X183069999Y-91499999D03*
X183069999Y-93999999D03*
%TD*%
D13*
%TO.C,J11*%
X170109999Y-28499999D03*
D14*
X167569999Y-28499999D03*
X165029999Y-28499999D03*
X162489999Y-28499999D03*
X159949999Y-28499999D03*
X157409999Y-28499999D03*
X154869999Y-28499999D03*
X152329999Y-28499999D03*
X149789999Y-28499999D03*
X147249999Y-28499999D03*
X144709999Y-28499999D03*
X142169999Y-28499999D03*
X139629999Y-28499999D03*
X137089999Y-28499999D03*
%TD*%
D16*
%TO.C,R3*%
X81940000Y-116250000D03*
D18*
X89559999Y-116249999D03*
%TD*%
%TO.C,U6*%
X150779999Y-140119999D03*
X148239999Y-140119999D03*
X145699999Y-140119999D03*
X143159999Y-140119999D03*
X140619999Y-140119999D03*
X138079999Y-140119999D03*
X135539999Y-140119999D03*
X132999999Y-140119999D03*
X132999999Y-132499999D03*
X135539999Y-132499999D03*
X138079999Y-132499999D03*
X140619999Y-132499999D03*
X143159999Y-132499999D03*
X145699999Y-132499999D03*
X148239999Y-132499999D03*
D15*
X150779999Y-132499999D03*
%TD*%
D13*
%TO.C,J4*%
X139649999Y-111699999D03*
D14*
X139649999Y-114239999D03*
X139649999Y-116779999D03*
%TD*%
D16*
%TO.C,C4*%
X108000000Y-110750000D03*
X113000000Y-110750000D03*
%TD*%
D23*
%TO.C,J1*%
X102280000Y-153120000D03*
D24*
X103880000Y-151120000D03*
D25*
X106379999Y-151119999D03*
X108879999Y-151119999D03*
X111379999Y-151119999D03*
X113879999Y-151119999D03*
X116379999Y-151119999D03*
%TD*%
D16*
%TO.C,R1*%
X76060000Y-123250000D03*
D18*
X68439999Y-123249999D03*
%TD*%
D15*
%TO.C,C1*%
X65249999Y-66749999D03*
D16*
X67750000Y-66750000D03*
%TD*%
D10*
%TO.C,M2*%
X190250000Y-41000000D03*
X190250000Y-46000000D03*
D11*
X183070000Y-41000000D03*
D12*
X183069999Y-43499999D03*
X183069999Y-45999999D03*
%TD*%
D23*
%TO.C,J7*%
X192225000Y-144100000D03*
D26*
X190225000Y-142500000D03*
D27*
X190224999Y-139999999D03*
X190224999Y-137499999D03*
X190224999Y-134999999D03*
%TD*%
D15*
%TO.C,C3*%
X109317620Y-116499999D03*
D16*
X111817621Y-116500000D03*
%TD*%
D15*
%TO.C,C6*%
X95249999Y-135249999D03*
D16*
X95250000Y-137750000D03*
%TD*%
D28*
%TO.C,D1*%
X77999999Y-135129999D03*
D29*
X77999999Y-150369999D03*
%TD*%
D23*
%TO.C,J3*%
X144250000Y-153120000D03*
D24*
X145850000Y-151120000D03*
D25*
X148349999Y-151119999D03*
X150849999Y-151119999D03*
X153349999Y-151119999D03*
X155849999Y-151119999D03*
X158349999Y-151119999D03*
%TD*%
D10*
%TO.C,M3*%
X190250000Y-53000000D03*
X190250000Y-58000000D03*
D11*
X183070000Y-53000000D03*
D12*
X183069999Y-55499999D03*
X183069999Y-57999999D03*
%TD*%
D10*
%TO.C,M4*%
X190250000Y-65000000D03*
X190250000Y-70000000D03*
D11*
X183070000Y-65000000D03*
D12*
X183069999Y-67499999D03*
X183069999Y-69999999D03*
%TD*%
D15*
%TO.C,A1*%
X177179999Y-146029999D03*
D18*
X177179999Y-143489999D03*
X177179999Y-140949999D03*
X177179999Y-138409999D03*
X177179999Y-135869999D03*
X177179999Y-133329999D03*
X177179999Y-130789999D03*
X177179999Y-128249999D03*
X164479999Y-128249999D03*
X164479999Y-130789999D03*
X164479999Y-133329999D03*
X164479999Y-135869999D03*
X164479999Y-138409999D03*
X164479999Y-140949999D03*
X164479999Y-143489999D03*
X164479999Y-146029999D03*
%TD*%
D19*
%TO.C,REF\u002A\u002A*%
X129250000Y-30000000D03*
%TD*%
D23*
%TO.C,J8*%
X192090000Y-118850000D03*
D26*
X190090000Y-117250000D03*
D27*
X190089999Y-114749999D03*
X190089999Y-112249999D03*
X190089999Y-109749999D03*
%TD*%
D13*
%TO.C,U7*%
X113749999Y-28499999D03*
D14*
X121369999Y-28499999D03*
X116289999Y-28499999D03*
X118829999Y-28499999D03*
%TD*%
D16*
%TO.C,C2*%
X64500000Y-74000000D03*
X69500000Y-74000000D03*
%TD*%
D30*
%TO.C,L1*%
X84000000Y-135250000D03*
X89000000Y-135250000D03*
%TD*%
D15*
%TO.C,C9*%
X97067620Y-42999999D03*
D16*
X99567621Y-43000000D03*
%TD*%
D13*
%TO.C,J6*%
X151899999Y-111724999D03*
D14*
X151899999Y-114264999D03*
X151899999Y-116804999D03*
%TD*%
D23*
%TO.C,TH1*%
X108850000Y-28000000D03*
D31*
X107250000Y-30000000D03*
D32*
X104749999Y-29999999D03*
%TD*%
D23*
%TO.C,J2*%
X123150000Y-153120000D03*
D24*
X124750000Y-151120000D03*
D25*
X127249999Y-151119999D03*
X129749999Y-151119999D03*
X132249999Y-151119999D03*
X134749999Y-151119999D03*
X137249999Y-151119999D03*
%TD*%
D15*
%TO.C,C8*%
X183499999Y-100749999D03*
D16*
X183500000Y-103250000D03*
%TD*%
D10*
%TO.C,M5*%
X190250000Y-77000000D03*
X190250000Y-82000000D03*
D11*
X183070000Y-77000000D03*
D12*
X183069999Y-79499999D03*
X183069999Y-81999999D03*
%TD*%
D33*
%TO.C,U1*%
X67050000Y-94250000D03*
X69590000Y-94250000D03*
X72130000Y-94250000D03*
X74670000Y-94250000D03*
X100070000Y-94250000D03*
X69590000Y-79010000D03*
X77210000Y-94250000D03*
X79750000Y-94250000D03*
X82290000Y-94250000D03*
X84830000Y-94250000D03*
X87370000Y-94250000D03*
X89910000Y-94250000D03*
X92450000Y-94250000D03*
X94990000Y-94250000D03*
X97530000Y-94250000D03*
X97530000Y-79010000D03*
X94990000Y-79010000D03*
X92450000Y-79010000D03*
X89910000Y-79010000D03*
X87370000Y-79010000D03*
X84830000Y-79010000D03*
X82290000Y-79010000D03*
X79750000Y-79010000D03*
X77210000Y-79010000D03*
X74670000Y-79010000D03*
X72130000Y-79010000D03*
X102610000Y-94250000D03*
X105150000Y-94250000D03*
X107690000Y-94250000D03*
X110230000Y-94250000D03*
X112770000Y-94250000D03*
X115310000Y-94250000D03*
X117850000Y-94250000D03*
X120390000Y-94250000D03*
X122930000Y-94250000D03*
X122930000Y-79010000D03*
X120390000Y-79010000D03*
X117850000Y-79010000D03*
X115310000Y-79010000D03*
X112770000Y-79010000D03*
X110230000Y-79010000D03*
X107690000Y-79010000D03*
X105150000Y-79010000D03*
X102610000Y-79010000D03*
X64510000Y-94250000D03*
X100070000Y-79010000D03*
X67050000Y-79010000D03*
X64510000Y-79010000D03*
%TD*%
D15*
%TO.C,U3*%
X103329999Y-106699999D03*
D18*
X100789999Y-106699999D03*
X98249999Y-106699999D03*
X95709999Y-106699999D03*
X95709999Y-114319999D03*
X98249999Y-114319999D03*
X100789999Y-114319999D03*
X103329999Y-114319999D03*
%TD*%
D34*
%TO.C,U2*%
X89749999Y-31499999D03*
D35*
X87749999Y-31499999D03*
X89749999Y-33499999D03*
X87749999Y-33499999D03*
X89749999Y-35499999D03*
X87749999Y-35499999D03*
%TD*%
M02*
