M48
; DRILL file {KiCad (7.0.0)} date Thu Dec  7 21:26:52 2023
; FORMAT={-:-/ absolute / metric / decimal}
; #@! TF.CreationDate,2023-12-07T21:26:52-05:00
; #@! TF.GenerationSoftware,Kicad,Pcbnew,(7.0.0)
; #@! TF.FileFunction,MixedPlating,1,4
FMAT,2
METRIC
; #@! TA.AperFunction,Plated,PTH,ComponentDrill
T1C0.800
; #@! TA.AperFunction,Plated,PTH,ComponentDrill
T2C0.950
; #@! TA.AperFunction,Plated,PTH,ComponentDrill
T3C1.000
; #@! TA.AperFunction,Plated,PTH,ComponentDrill
T4C1.200
; #@! TA.AperFunction,Plated,PTH,ComponentDrill
T5C1.300
; #@! TA.AperFunction,Plated,PTH,ComponentDrill
T6C1.600
; #@! TA.AperFunction,NonPlated,NPTH,ComponentDrill
T7C1.200
; #@! TA.AperFunction,NonPlated,NPTH,ComponentDrill
T8C1.700
; #@! TA.AperFunction,NonPlated,NPTH,ComponentDrill
T9C4.000
%
G90
G05
T1
X64.5Y-74.0
X64.51Y-79.01
X64.51Y-94.25
X65.25Y-66.75
X67.0Y-141.568
X67.0Y-144.068
X67.05Y-79.01
X67.05Y-94.25
X67.75Y-66.75
X68.44Y-123.25
X69.5Y-74.0
X69.59Y-79.01
X69.59Y-94.25
X72.13Y-79.01
X72.13Y-94.25
X74.67Y-79.01
X74.67Y-94.25
X76.06Y-123.25
X77.21Y-79.01
X77.21Y-94.25
X79.75Y-79.01
X79.75Y-94.25
X81.69Y-123.25
X81.94Y-116.25
X82.29Y-79.01
X82.29Y-94.25
X84.83Y-79.01
X84.83Y-94.25
X87.37Y-79.01
X87.37Y-94.25
X87.75Y-31.5
X87.75Y-33.5
X87.75Y-35.5
X89.31Y-123.25
X89.56Y-116.25
X89.75Y-31.5
X89.75Y-33.5
X89.75Y-35.5
X89.91Y-79.01
X89.91Y-94.25
X92.45Y-79.01
X92.45Y-94.25
X94.99Y-79.01
X94.99Y-94.25
X95.25Y-135.25
X95.25Y-137.75
X95.71Y-106.7
X95.71Y-114.32
X97.068Y-43.0
X97.53Y-79.01
X97.53Y-94.25
X98.25Y-106.7
X98.25Y-114.32
X99.568Y-43.0
X99.69Y-37.0
X100.07Y-79.01
X100.07Y-94.25
X100.79Y-106.7
X100.79Y-114.32
X102.61Y-79.01
X102.61Y-94.25
X103.33Y-106.7
X103.33Y-114.32
X105.15Y-79.01
X105.15Y-94.25
X107.31Y-37.0
X107.69Y-79.01
X107.69Y-94.25
X108.0Y-110.75
X108.05Y-132.5
X108.05Y-140.12
X109.318Y-116.5
X110.23Y-79.01
X110.23Y-94.25
X110.59Y-132.5
X110.59Y-140.12
X111.818Y-116.5
X112.77Y-79.01
X112.77Y-94.25
X113.0Y-110.75
X113.13Y-132.5
X113.13Y-140.12
X115.31Y-79.01
X115.31Y-94.25
X115.67Y-132.5
X115.67Y-140.12
X117.85Y-79.01
X117.85Y-94.25
X118.21Y-132.5
X118.21Y-140.12
X120.39Y-79.01
X120.39Y-94.25
X120.75Y-132.5
X120.75Y-140.12
X122.93Y-79.01
X122.93Y-94.25
X123.29Y-132.5
X123.29Y-140.12
X125.83Y-132.5
X125.83Y-140.12
X133.0Y-132.5
X133.0Y-140.12
X135.54Y-132.5
X135.54Y-140.12
X138.08Y-132.5
X138.08Y-140.12
X140.62Y-132.5
X140.62Y-140.12
X143.16Y-132.5
X143.16Y-140.12
X145.7Y-132.5
X145.7Y-140.12
X148.24Y-132.5
X148.24Y-140.12
X150.78Y-132.5
X150.78Y-140.12
X164.14Y-103.11
X164.14Y-105.65
X164.14Y-108.19
X164.14Y-110.73
X164.14Y-113.27
X164.14Y-115.81
X164.14Y-118.35
X164.14Y-120.89
X164.48Y-128.25
X164.48Y-130.79
X164.48Y-133.33
X164.48Y-135.87
X164.48Y-138.41
X164.48Y-140.95
X164.48Y-143.49
X164.48Y-146.03
X176.84Y-103.11
X176.84Y-105.65
X176.84Y-108.19
X176.84Y-110.73
X176.84Y-113.27
X176.84Y-115.81
X176.84Y-118.35
X176.84Y-120.89
X177.18Y-128.25
X177.18Y-130.79
X177.18Y-133.33
X177.18Y-135.87
X177.18Y-138.41
X177.18Y-140.95
X177.18Y-143.49
X177.18Y-146.03
X183.5Y-100.75
X183.5Y-103.25
X184.0Y-127.0
X184.0Y-129.5
T2
X103.88Y-151.12
X106.38Y-151.12
X108.88Y-151.12
X111.38Y-151.12
X113.88Y-151.12
X116.38Y-151.12
X124.75Y-151.12
X127.25Y-151.12
X129.75Y-151.12
X132.25Y-151.12
X134.75Y-151.12
X137.25Y-151.12
X145.85Y-151.12
X148.35Y-151.12
X150.85Y-151.12
X153.35Y-151.12
X155.85Y-151.12
X158.35Y-151.12
X190.09Y-109.75
X190.09Y-112.25
X190.09Y-114.75
X190.09Y-117.25
X190.225Y-135.0
X190.225Y-137.5
X190.225Y-140.0
X190.225Y-142.5
T3
X69.5Y-130.15
X69.5Y-131.85
X69.5Y-133.55
X69.5Y-135.25
X69.5Y-136.95
X104.75Y-30.0
X107.25Y-30.0
X113.75Y-28.5
X116.29Y-28.5
X118.83Y-28.5
X121.37Y-28.5
X137.09Y-28.5
X139.63Y-28.5
X139.65Y-111.7
X139.65Y-114.24
X139.65Y-116.78
X142.17Y-28.5
X144.71Y-28.5
X145.75Y-111.725
X145.75Y-114.265
X145.75Y-116.805
X147.25Y-28.5
X149.79Y-28.5
X151.9Y-111.725
X151.9Y-114.265
X151.9Y-116.805
X152.33Y-28.5
X154.87Y-28.5
X157.41Y-28.5
X159.95Y-28.5
X162.49Y-28.5
X165.03Y-28.5
X167.57Y-28.5
X170.11Y-28.5
T4
X73.14Y-109.5
X73.14Y-112.0
X73.39Y-55.25
X73.39Y-57.75
X183.07Y-29.0
X183.07Y-31.5
X183.07Y-34.0
X183.07Y-41.0
X183.07Y-43.5
X183.07Y-46.0
X183.07Y-53.0
X183.07Y-55.5
X183.07Y-58.0
X183.07Y-65.0
X183.07Y-67.5
X183.07Y-70.0
X183.07Y-77.0
X183.07Y-79.5
X183.07Y-82.0
X183.07Y-89.0
X183.07Y-91.5
X183.07Y-94.0
T5
X84.0Y-135.25
X89.0Y-135.25
T6
X78.0Y-135.13
X78.0Y-150.37
T7
X102.28Y-153.12
X108.85Y-28.0
X123.15Y-153.12
X144.25Y-153.12
X192.09Y-118.85
X192.225Y-144.1
T8
X65.96Y-109.5
X65.96Y-112.0
X66.21Y-55.25
X66.21Y-57.75
X190.25Y-29.0
X190.25Y-34.0
X190.25Y-41.0
X190.25Y-46.0
X190.25Y-53.0
X190.25Y-58.0
X190.25Y-65.0
X190.25Y-70.0
X190.25Y-77.0
X190.25Y-82.0
X190.25Y-89.0
X190.25Y-94.0
T9
X66.5Y-151.25
X129.25Y-30.0
X192.0Y-151.25
T0
M30
